<svg width="265" height="30" viewBox="0 0 265 30" fill="none" xmlns="http://www.w3.org/2000/svg">
<path d="M0.988281 0.799805H26.1893V8.60233H18.0581V28.8058H9.11955V8.60233H0.988281V0.799805Z" fill="white"/>
<path d="M37.9773 0.799805V28.8005H29.0334V0.799805H37.9773ZM34.8071 0.799805H41.0245C43.8151 0.799805 46.0872 1.21545 47.8353 2.04147C49.5835 2.8675 50.8719 4.00394 51.6951 5.44028C52.5238 6.88188 52.9354 8.53393 52.9354 10.4017C52.9354 12.2695 52.5238 13.8899 51.6951 15.3421C50.8665 16.7942 49.5835 17.9359 47.8353 18.7619C46.0872 19.5879 43.8151 20.0036 41.0245 20.0036H34.8071V13.4006H40.2119C40.9711 13.4006 41.5966 13.3007 42.083 13.1008C42.5695 12.9008 42.9437 12.6009 43.2004 12.2011C43.457 11.8012 43.5853 11.333 43.5853 10.8016C43.5853 10.2439 43.457 9.77034 43.2004 9.381C42.9437 8.99693 42.5695 8.70229 42.083 8.50236C41.5966 8.30243 40.9711 8.20247 40.2119 8.20247H34.8071V0.799805ZM46.5149 16.7995L54.6461 28.8005H44.2802L37.3679 16.7995H46.5149Z" fill="white"/>
<path d="M66.6319 0.799805V28.8005H57.4849V0.799805H66.6319Z" fill="white"/>
<path d="M81.2639 0.799805V28.8005H72.3201V0.799805H81.2639ZM78.0938 0.799805H83.4986C86.2892 0.799805 88.5612 1.18914 90.3094 1.96255C92.0575 2.73597 93.3459 3.83558 94.1692 5.2614C94.9978 6.68721 95.4095 8.4024 95.4095 10.4017C95.4095 12.401 94.9978 14.0794 94.1692 15.521C93.3406 16.9626 92.0575 18.0674 90.3094 18.8408C88.5612 19.6143 86.2892 20.0036 83.4986 20.0036H78.0938V13.0008H83.4986C84.6105 13.0008 85.4499 12.7745 86.0165 12.3221C86.5832 11.8696 86.8719 11.2277 86.8719 10.4017C86.8719 9.57567 86.5886 8.93379 86.0165 8.48132C85.4499 8.02885 84.6052 7.80261 83.4986 7.80261H78.0938V0.799805Z" fill="white"/>
<path d="M104.353 0.799805H129.554V8.60233H121.423V28.8058H112.479V8.60233H104.348V0.799805H104.353Z" fill="white"/>
<path d="M176.417 0.799805V28.8005H167.27V0.799805H176.417Z" fill="white"/>
<path d="M191.049 0.799805V21.4031H202.634V28.8058H182.105V0.799805H191.049Z" fill="white"/>
<path d="M203.853 8.72325C204.666 6.9081 205.788 5.35075 207.226 4.04069C208.665 2.73588 210.343 1.73623 212.268 1.04174C214.192 0.347247 216.267 0 218.485 0C220.704 0 222.863 0.347247 224.788 1.04174C226.713 1.73623 228.391 2.73588 229.829 4.04069C231.267 5.34549 232.374 6.9081 233.16 8.72325C233.946 10.5384 234.336 12.564 234.336 14.8053C234.336 17.0466 233.951 19.0933 233.176 20.9453C232.406 22.7973 231.31 24.4072 229.904 25.7646C228.493 27.1221 226.82 28.1691 224.884 28.9056C222.949 29.637 220.811 30.0053 218.48 30.0053C216.149 30.0053 214.016 29.637 212.075 28.9056C210.14 28.1743 208.467 27.1273 207.055 25.7646C205.644 24.402 204.553 22.7973 203.784 20.9453C203.014 19.0933 202.624 17.0466 202.624 14.8053C202.624 12.564 203.03 10.5384 203.842 8.72325H203.853ZM212.877 18.3988C213.39 19.4405 214.123 20.2455 215.074 20.819C216.021 21.3925 217.159 21.6766 218.49 21.6766C219.822 21.6766 220.955 21.3925 221.907 20.819C222.853 20.2455 223.585 19.4405 224.104 18.3988C224.617 17.3571 224.874 16.1575 224.874 14.8001C224.874 13.4427 224.628 12.2062 224.141 11.1803C223.655 10.1543 222.944 9.35461 222.008 8.78113C221.073 8.20765 219.902 7.92354 218.49 7.92354C217.165 7.92354 216.026 8.21291 215.074 8.78113C214.128 9.35461 213.396 10.1543 212.877 11.1803C212.364 12.2062 212.107 13.4163 212.107 14.8001C212.107 16.1838 212.364 17.3623 212.877 18.3988Z" fill="white"/>
<path d="M247.348 0.799805V28.8005H238.404V0.799805H247.348ZM244.178 0.799805H250.395C253.186 0.799805 255.458 1.21545 257.206 2.04147C258.954 2.8675 260.243 4.00394 261.066 5.44028C261.895 6.88188 262.306 8.53393 262.306 10.4017C262.306 12.2695 261.895 13.8899 261.066 15.3421C260.237 16.7942 258.954 17.9359 257.206 18.7619C255.458 19.5879 253.186 20.0036 250.395 20.0036H244.178V13.4006H249.583C250.342 13.4006 250.967 13.3007 251.454 13.1008C251.94 12.9008 252.315 12.6009 252.571 12.2011C252.828 11.8012 252.956 11.333 252.956 10.8016C252.956 10.2439 252.828 9.77034 252.571 9.381C252.315 8.99693 251.94 8.70229 251.454 8.50236C250.967 8.30243 250.342 8.20247 249.583 8.20247H244.178V0.799805ZM255.88 16.7995L264.012 28.8005H253.646L246.733 16.7995H255.88Z" fill="white"/>
<path d="M157.589 1.14705C157.524 1.13652 157.455 1.126 157.391 1.11548C153.339 10.3333 149.292 19.5459 145.165 28.932C150.719 28.9636 156.113 28.9899 161.582 29.0215C160.235 19.6195 158.909 10.3859 157.589 1.14705Z" fill="#EE9B00"/>
<path d="M154.012 2.89901C153.959 2.86744 153.905 2.84114 153.852 2.80957C144.208 11.3487 134.564 19.8878 124.754 28.5742C128.592 28.7373 132.179 28.8688 135.761 29.0583C136.403 29.0898 136.723 28.8846 137.055 28.3848C142.401 20.3245 147.768 12.2799 153.13 4.23012C153.424 3.78817 153.718 3.34622 154.018 2.90427L154.012 2.89901Z" fill="#EE9B00"/>
<path d="M141.283 27.5321L140.512 28.9158L140.98 29.1689L141.752 27.7852L141.283 27.5321Z" fill="white"/>
<path d="M142.524 26.3802L142.053 26.1277L143.347 23.8074L143.817 24.06L142.524 26.3802ZM144.593 22.6657L144.122 22.4132L145.416 20.0929L145.886 20.3455L144.593 22.6657ZM146.667 18.946L146.196 18.6934L147.49 16.3732L147.961 16.6257L146.667 18.946ZM148.736 15.2315L148.265 14.9789L149.559 12.6587L150.029 12.9113L148.736 15.2315ZM150.81 11.517L150.34 11.2645L151.633 8.94422L152.104 9.19677L150.81 11.517ZM152.879 7.80252L152.408 7.54998L153.702 5.22974L154.173 5.48228L152.879 7.80252Z" fill="white"/>
<path d="M155.264 2.45396L154.492 3.83765L154.961 4.09079L155.732 2.7071L155.264 2.45396Z" fill="white"/>
</svg>
