<svg width="264" height="30" viewBox="0 0 264 30" fill="none" xmlns="http://www.w3.org/2000/svg">
<g clip-path="url(#clip0_8_37)">
<path d="M0 0.799805H25.2946V8.60233H17.1332V28.8058H8.16146V8.60233H0V0.799805Z" fill="#14213D"/>
<path d="M37.1262 0.799805V28.8005H28.1492V0.799805H37.1262ZM33.9443 0.799805H40.1848C42.9858 0.799805 45.2662 1.21545 47.0209 2.04147C48.7755 2.8675 50.0687 4.00394 50.895 5.44028C51.7267 6.88188 52.1399 8.53393 52.1399 10.4017C52.1399 12.2695 51.7267 13.8899 50.895 15.3421C50.0633 16.7942 48.7755 17.9359 47.0209 18.7619C45.2662 19.5879 42.9858 20.0036 40.1848 20.0036H33.9443V13.4006H39.3692C40.1311 13.4006 40.7589 13.3007 41.2472 13.1008C41.7355 12.9008 42.1111 12.6009 42.3687 12.2011C42.6262 11.8012 42.755 11.333 42.755 10.8016C42.755 10.2439 42.6262 9.77034 42.3687 9.381C42.1111 8.99693 41.7355 8.70229 41.2472 8.50236C40.7589 8.30243 40.1311 8.20247 39.3692 8.20247H33.9443V0.799805ZM45.6955 16.7995L53.857 28.8005H43.4526L36.5145 16.7995H45.6955Z" fill="#14213D"/>
<path d="M65.8873 0.799805V28.8005H56.7063V0.799805H65.8873Z" fill="#14213D"/>
<path d="M80.5738 0.799805V28.8005H71.5967V0.799805H80.5738ZM77.3918 0.799805H82.8167C85.6177 0.799805 87.8981 1.18914 89.6528 1.96255C91.4074 2.73597 92.7006 3.83558 93.5269 5.2614C94.3586 6.68721 94.7718 8.4024 94.7718 10.4017C94.7718 12.401 94.3586 14.0794 93.5269 15.521C92.6952 16.9626 91.4074 18.0674 89.6528 18.8408C87.8981 19.6143 85.6177 20.0036 82.8167 20.0036H77.3918V13.0008H82.8167C83.9328 13.0008 84.7752 12.7745 85.344 12.3221C85.9128 11.8696 86.2025 11.2277 86.2025 10.4017C86.2025 9.57567 85.9181 8.93379 85.344 8.48132C84.7752 8.02885 83.9274 7.80261 82.8167 7.80261H77.3918V0.799805Z" fill="#14213D"/>
<path d="M103.749 0.799805H129.043V8.60233H120.882V28.8058H111.905V8.60233H103.743V0.799805H103.749Z" fill="#FCA311"/>
<path d="M176.08 0.799805V28.8005H166.899V0.799805H176.08Z" fill="#FCA311"/>
<path d="M190.767 0.799805V21.4031H202.395V28.8058H181.79V0.799805H190.767Z" fill="#FCA311"/>
<path d="M203.618 8.72325C204.434 6.9081 205.56 5.35075 207.004 4.04069C208.447 2.73588 210.132 1.73623 212.064 1.04174C213.995 0.347247 216.077 0 218.304 0C220.531 0 222.699 0.347247 224.631 1.04174C226.562 1.73623 228.247 2.73588 229.691 4.04069C231.134 5.34549 232.245 6.9081 233.034 8.72325C233.822 10.5384 234.214 12.564 234.214 14.8053C234.214 17.0466 233.828 19.0933 233.05 20.9453C232.277 22.7973 231.177 24.4072 229.766 25.7646C228.349 27.1221 226.67 28.1691 224.727 28.9056C222.785 29.637 220.638 30.0053 218.299 30.0053C215.959 30.0053 213.818 29.637 211.871 28.9056C209.928 28.1743 208.249 27.1273 206.832 25.7646C205.415 24.402 204.321 22.7973 203.548 20.9453C202.775 19.0933 202.384 17.0466 202.384 14.8053C202.384 12.564 202.792 10.5384 203.607 8.72325H203.618ZM212.675 18.3988C213.191 19.4405 213.926 20.2455 214.881 20.819C215.831 21.3925 216.974 21.6766 218.31 21.6766C219.646 21.6766 220.783 21.3925 221.738 20.819C222.688 20.2455 223.423 19.4405 223.944 18.3988C224.459 17.3571 224.716 16.1575 224.716 14.8001C224.716 13.4427 224.47 12.2062 223.981 11.1803C223.493 10.1543 222.779 9.35461 221.84 8.78113C220.901 8.20765 219.726 7.92354 218.31 7.92354C216.979 7.92354 215.836 8.21291 214.881 8.78113C213.931 9.35461 213.196 10.1543 212.675 11.1803C212.16 12.2062 211.903 13.4163 211.903 14.8001C211.903 16.1838 212.16 17.3623 212.675 18.3988Z" fill="#FCA311"/>
<path d="M247.275 0.799805V28.8005H238.298V0.799805H247.275ZM244.093 0.799805H250.333C253.134 0.799805 255.415 1.21545 257.169 2.04147C258.924 2.8675 260.217 4.00394 261.043 5.44028C261.875 6.88188 262.288 8.53393 262.288 10.4017C262.288 12.2695 261.875 13.8899 261.043 15.3421C260.212 16.7942 258.924 17.9359 257.169 18.7619C255.415 19.5879 253.134 20.0036 250.333 20.0036H244.093V13.4006H249.518C250.28 13.4006 250.907 13.3007 251.396 13.1008C251.884 12.9008 252.26 12.6009 252.517 12.2011C252.775 11.8012 252.903 11.333 252.903 10.8016C252.903 10.2439 252.775 9.77034 252.517 9.381C252.26 8.99693 251.884 8.70229 251.396 8.50236C250.907 8.30243 250.28 8.20247 249.518 8.20247H244.093V0.799805ZM255.839 16.7995L264 28.8005H253.596L246.658 16.7995H255.839Z" fill="#FCA311"/>
<path d="M157.182 1.14705C157.118 1.13652 157.048 1.126 156.983 1.11548C152.916 10.3333 148.854 19.5459 144.712 28.932C150.287 28.9636 155.701 28.9899 161.19 29.0215C159.838 19.6195 158.507 10.3859 157.182 1.14705Z" fill="#14213D"/>
<path d="M153.592 2.89901C153.539 2.86744 153.485 2.84114 153.431 2.80957C143.751 11.3487 134.071 19.8878 124.225 28.5742C128.078 28.7373 131.678 28.8688 135.273 29.0583C135.917 29.0898 136.239 28.8846 136.572 28.3848C141.938 20.3245 147.325 12.2799 152.707 4.23012C153.002 3.78817 153.297 3.34622 153.598 2.90427L153.592 2.89901Z" fill="#14213D"/>
<path d="M140.816 27.5321L140.042 28.9158L140.512 29.1689L141.286 27.7852L140.816 27.5321Z" fill="#14213D"/>
<path d="M142.061 26.3802L141.589 26.1277L142.887 23.8074L143.36 24.06L142.061 26.3802ZM144.138 22.6657L143.665 22.4132L144.964 20.0929L145.436 20.3455L144.138 22.6657ZM146.22 18.946L145.747 18.6934L147.046 16.3732L147.518 16.6257L146.22 18.946ZM148.296 15.2315L147.824 14.9789L149.123 12.6587L149.595 12.9113L148.296 15.2315ZM150.378 11.517L149.906 11.2645L151.204 8.94422L151.677 9.19677L150.378 11.517ZM152.455 7.80252L151.983 7.54998L153.281 5.22974L153.753 5.48228L152.455 7.80252Z" fill="#14213D"/>
<path d="M154.848 2.45396L154.074 3.83765L154.544 4.09079L155.319 2.7071L154.848 2.45396Z" fill="#14213D"/>
</g>
<defs>
<clipPath id="clip0_8_37">
<rect width="264" height="30" fill="white"/>
</clipPath>
</defs>
</svg>
